<?xml version="1.0" encoding="UTF-8"?>
<svg id="Layer_2" data-name="Layer 2" xmlns="http://www.w3.org/2000/svg" xmlns:xlink="http://www.w3.org/1999/xlink" viewBox="0 0 363.9 220.77">
  <defs>
    <style>
      .cls-1 {
        clip-path: url(#clippath-73);
      }

      .cls-2 {
        clip-path: url(#clippath-72);
      }

      .cls-3 {
        clip-path: url(#clippath-62);
      }

      .cls-4 {
        clip-path: url(#clippath-45);
      }

      .cls-5 {
        clip-path: url(#clippath-63);
      }

      .cls-6 {
        clip-path: url(#clippath-20);
      }

      .cls-7 {
        clip-path: url(#clippath-11);
      }

      .cls-8 {
        clip-path: url(#clippath-16);
      }

      .cls-9 {
        clip-path: url(#clippath-59);
      }

      .cls-10 {
        clip-path: url(#clippath-78);
      }

      .cls-11 {
        clip-path: url(#clippath-33);
      }

      .cls-12 {
        clip-path: url(#clippath-64);
      }

      .cls-13 {
        clip-path: url(#clippath-47);
      }

      .cls-14 {
        clip-path: url(#clippath-77);
      }

      .cls-15 {
        clip-path: url(#clippath-41);
      }

      .cls-16 {
        clip-path: url(#clippath-32);
      }

      .cls-17 {
        clip-path: url(#clippath-2);
      }

      .cls-18 {
        clip-path: url(#clippath-13);
      }

      .cls-19 {
        clip-path: url(#clippath-37);
      }

      .cls-20 {
        clip-path: url(#clippath-46);
      }

      .cls-21 {
        clip-path: url(#clippath-25);
      }

      .cls-22, .cls-23, .cls-24 {
        stroke-width: 0px;
      }

      .cls-25 {
        clip-path: url(#clippath-15);
      }

      .cls-26 {
        clip-path: url(#clippath-6);
      }

      .cls-27 {
        clip-path: url(#clippath-76);
      }

      .cls-28 {
        clip-path: url(#clippath-40);
      }

      .cls-29 {
        clip-path: url(#clippath-26);
      }

      .cls-30 {
        clip-path: url(#clippath-75);
      }

      .cls-31 {
        clip-path: url(#clippath-7);
      }

      .cls-32 {
        clip-path: url(#clippath-21);
      }

      .cls-33 {
        clip-path: url(#clippath-34);
      }

      .cls-34 {
        clip-path: url(#clippath-57);
      }

      .cls-35 {
        clip-path: url(#clippath-1);
      }

      .cls-36 {
        clip-path: url(#clippath-4);
      }

      .cls-37 {
        clip-path: url(#clippath-38);
      }

      .cls-38 {
        clip-path: url(#clippath-36);
      }

      .cls-39 {
        clip-path: url(#clippath-27);
      }

      .cls-40 {
        clip-path: url(#clippath-60);
      }

      .cls-41 {
        clip-path: url(#clippath-44);
      }

      .cls-42 {
        clip-path: url(#clippath-12);
      }

      .cls-43, .cls-24 {
        fill: #db1f26;
      }

      .cls-44 {
        clip-path: url(#clippath-24);
      }

      .cls-45 {
        clip-path: url(#clippath-30);
      }

      .cls-46 {
        clip-path: url(#clippath-79);
      }

      .cls-47, .cls-23 {
        fill: #01559f;
      }

      .cls-48 {
        clip-path: url(#clippath-22);
      }

      .cls-49 {
        clip-path: url(#clippath-9);
      }

      .cls-50 {
        clip-path: url(#clippath-52);
      }

      .cls-51 {
        clip-path: url(#clippath);
      }

      .cls-52 {
        clip-path: url(#clippath-50);
      }

      .cls-53 {
        clip-path: url(#clippath-48);
      }

      .cls-54 {
        clip-path: url(#clippath-61);
      }

      .cls-55 {
        clip-path: url(#clippath-39);
      }

      .cls-56 {
        clip-path: url(#clippath-19);
      }

      .cls-57 {
        clip-path: url(#clippath-31);
      }

      .cls-58 {
        clip-path: url(#clippath-54);
      }

      .cls-59 {
        clip-path: url(#clippath-3);
      }

      .cls-60 {
        clip-path: url(#clippath-43);
      }

      .cls-61 {
        clip-path: url(#clippath-70);
      }

      .cls-62 {
        clip-path: url(#clippath-8);
      }

      .cls-63 {
        clip-path: url(#clippath-55);
      }

      .cls-64 {
        clip-path: url(#clippath-69);
      }

      .cls-65 {
        clip-path: url(#clippath-29);
      }

      .cls-66 {
        clip-path: url(#clippath-18);
      }

      .cls-67 {
        clip-path: url(#clippath-14);
      }

      .cls-68 {
        clip-path: url(#clippath-17);
      }

      .cls-69 {
        clip-path: url(#clippath-5);
      }

      .cls-70 {
        clip-path: url(#clippath-58);
      }

      .cls-71 {
        clip-path: url(#clippath-42);
      }

      .cls-72 {
        clip-path: url(#clippath-65);
      }

      .cls-73 {
        clip-path: url(#clippath-10);
      }

      .cls-74 {
        clip-path: url(#clippath-23);
      }

      .cls-75 {
        clip-path: url(#clippath-74);
      }

      .cls-76 {
        clip-path: url(#clippath-56);
      }

      .cls-77 {
        clip-path: url(#clippath-53);
      }

      .cls-78 {
        clip-path: url(#clippath-49);
      }

      .cls-79 {
        clip-path: url(#clippath-67);
      }

      .cls-80 {
        clip-path: url(#clippath-51);
      }

      .cls-81 {
        clip-path: url(#clippath-28);
      }

      .cls-82 {
        clip-path: url(#clippath-71);
      }

      .cls-83 {
        clip-path: url(#clippath-68);
      }

      .cls-84 {
        clip-path: url(#clippath-35);
      }

      .cls-85 {
        clip-path: url(#clippath-66);
      }
    </style>
    <clipPath id="clippath">
      <path class="cls-23" d="m15.2,34.42l9.69,4.92c4.15-5.31,9.15-10.08,14.77-14.15l-6.34-8.14c-6.94,4.95-13.07,10.81-18.12,17.37"/>
    </clipPath>
    <clipPath id="clippath-1">
      <polygon class="cls-23" points="4.64 31.65 31.21 51.02 50.21 24.76 23.65 5.38 4.64 31.65"/>
    </clipPath>
    <clipPath id="clippath-2">
      <path class="cls-23" d="m11.75,79.67c-.2-3.02-.15-6.1.18-9.25.33-3.14.92-6.23,1.76-9.24l-11.14-2.1c-1.06,3.7-1.81,7.48-2.21,11.34-.4,3.86-.46,7.65-.17,11.34l11.57-2.1"/>
    </clipPath>
    <clipPath id="clippath-3">
      <polygon class="cls-23" points="-10.84 73.93 8.93 88.35 24.44 66.91 4.67 52.49 -10.84 73.93"/>
    </clipPath>
    <clipPath id="clippath-4">
      <path class="cls-23" d="m22.08,123.79l8.05-8.14c-4.77-4.07-8.76-8.84-11.79-14.16l-10.73,4.93c3.67,6.55,8.57,12.41,14.47,17.37"/>
    </clipPath>
    <clipPath id="clippath-5">
      <polygon class="cls-23" points="-2.95 116.09 22.35 134.54 40.68 109.19 15.39 90.75 -2.95 116.09"/>
    </clipPath>
    <clipPath id="clippath-6">
      <path class="cls-23" d="m51.39,127.28l-5.3,9.65c7.57,2.45,15.82,3.82,24.55,3.92l.76-10.37c-7.1-.12-13.82-1.24-20.01-3.19"/>
    </clipPath>
    <clipPath id="clippath-7">
      <polygon class="cls-23" points="39.67 136.16 62.66 152.93 77.82 131.96 54.83 115.2 39.67 136.16"/>
    </clipPath>
    <clipPath id="clippath-8">
      <path class="cls-23" d="m94.78,127.28c-6.61,1.96-13.57,3.07-20.69,3.19l-1.43,10.37c8.75-.09,17.29-1.47,25.37-3.92l-3.26-9.65"/>
    </clipPath>
    <clipPath id="clippath-9">
      <polygon class="cls-23" points="66.24 136.16 89.28 152.96 104.46 131.96 81.43 115.17 66.24 136.16"/>
    </clipPath>
    <clipPath id="clippath-10">
      <path class="cls-23" d="m14.42,58.8c2-6.18,5.03-12.03,8.89-17.37l-9.3-5.45c-4.79,6.53-8.51,13.7-10.92,21.31l11.32,1.5"/>
    </clipPath>
    <clipPath id="clippath-11">
      <polygon class="cls-23" points="-7.7 50.93 16.33 68.46 34.12 43.87 10.08 26.34 -7.7 50.93"/>
    </clipPath>
    <clipPath id="clippath-12">
      <path class="cls-23" d="m.33,83.54c.8,7.61,3.02,14.78,6.43,21.31l10.45-5.45c-2.74-5.34-4.54-11.19-5.24-17.37l-11.64,1.51"/>
    </clipPath>
    <clipPath id="clippath-13">
      <polygon class="cls-23" points="-10.47 96.98 11.38 112.91 28.01 89.92 6.16 73.98 -10.47 96.98"/>
    </clipPath>
    <clipPath id="clippath-14">
      <path class="cls-23" d="m32.03,117.2l-8.53,7.76c6.02,4.78,13.01,8.63,20.75,11.35l4.68-9.85c-6.27-2.25-11.97-5.39-16.91-9.25"/>
    </clipPath>
    <clipPath id="clippath-15">
      <polygon class="cls-23" points="14.46 129.7 40.16 148.45 57.99 123.8 32.29 105.05 14.46 129.7"/>
    </clipPath>
    <clipPath id="clippath-16">
      <path class="cls-23" d="m47.09,67.46l-13.25-2.5c-.45,1.78-.78,3.61-.98,5.45-.2,1.85-.25,3.67-.17,5.45l13.78-2.49c0-.98.04-1.96.14-2.96.1-1,.27-1.98.48-2.96"/>
    </clipPath>
    <clipPath id="clippath-17">
      <polygon class="cls-23" points="27.45 72.11 42.09 82.79 52.25 68.73 37.62 58.06 27.45 72.11"/>
    </clipPath>
    <clipPath id="clippath-18">
      <path class="cls-23" d="m44.69,100.94l9.58-9.68c-1.44-1.37-2.7-2.89-3.78-4.53l-12.76,5.86c1.87,3.08,4.22,5.9,6.96,8.35"/>
    </clipPath>
    <clipPath id="clippath-19">
      <polygon class="cls-23" points="31 96.03 48.56 108.84 61 91.64 43.44 78.83 31 96.03"/>
    </clipPath>
    <clipPath id="clippath-20">
      <path class="cls-23" d="m92.67,108.65c3.94-1.4,7.68-3.25,11.12-5.46l-8.2-9.22c-1.91,1.16-3.93,2.15-6.04,2.96l3.11,11.72"/>
    </clipPath>
    <clipPath id="clippath-21">
      <polygon class="cls-23" points="82.61 103.57 98.88 115.44 110.75 99.03 94.48 87.16 82.61 103.57"/>
    </clipPath>
    <clipPath id="clippath-22">
      <path class="cls-23" d="m48.52,83.09c-.77-1.76-1.33-3.62-1.68-5.56l-13.84,1.79c.51,3.62,1.56,7.06,3.09,10.25l12.42-6.48"/>
    </clipPath>
    <clipPath id="clippath-23">
      <polygon class="cls-23" points="27.3 85.41 43.16 96.97 54.22 81.68 38.36 70.11 27.3 85.41"/>
    </clipPath>
    <clipPath id="clippath-24">
      <path class="cls-23" d="m73.67,99.39c-2.23-.14-4.37-.49-6.41-1.02l-6.3,11.47c3.7,1.08,7.66,1.73,11.81,1.88l.9-12.34"/>
    </clipPath>
    <clipPath id="clippath-25">
      <polygon class="cls-23" points="54.64 107.11 69.28 117.79 79.99 102.98 65.35 92.3 54.64 107.11"/>
    </clipPath>
    <clipPath id="clippath-26">
      <path class="cls-23" d="m63,96.93c-1.94-.81-3.75-1.81-5.42-2.96l-10.14,9.22c2.97,2.21,6.32,4.05,9.98,5.46l5.58-11.72"/>
    </clipPath>
    <clipPath id="clippath-27">
      <polygon class="cls-23" points="40.49 103.57 57.63 116.07 69.95 99.03 52.81 86.54 40.49 103.57"/>
    </clipPath>
    <clipPath id="clippath-28">
      <path class="cls-23" d="m76.67,111.72c4.18-.16,8.28-.8,12.2-1.88l-3.89-11.47c-2.15.53-4.37.87-6.62,1.02l-1.69,12.34"/>
    </clipPath>
    <clipPath id="clippath-29">
      <polygon class="cls-23" points="70.35 107.11 84.66 117.55 95.2 102.98 80.89 92.54 70.35 107.11"/>
    </clipPath>
    <clipPath id="clippath-30">
      <path class="cls-23" d="m15.73,70.42c-.31,2.91-.36,5.76-.18,8.56l13.13-2.38c-.1-2.02-.05-4.08.17-6.18.22-2.09.6-4.16,1.13-6.17l-12.63-2.38c-.76,2.79-1.31,5.65-1.62,8.55"/>
    </clipPath>
    <clipPath id="clippath-31">
      <polygon class="cls-23" points="7.27 73.07 24.93 85.96 38.09 67.77 20.42 54.89 7.27 73.07"/>
    </clipPath>
    <clipPath id="clippath-32">
      <path class="cls-23" d="m53.12,124.12c5.75,1.79,11.97,2.82,18.52,2.95l.86-11.76c-4.71-.15-9.2-.89-13.38-2.13l-6,10.94"/>
    </clipPath>
    <clipPath id="clippath-33">
      <polygon class="cls-23" points="46.54 122.28 65.81 136.34 79.08 117.98 59.81 103.93 46.54 122.28"/>
    </clipPath>
    <clipPath id="clippath-34">
      <path class="cls-23" d="m90.01,113.19c-4.44,1.24-9.08,1.98-13.83,2.13l-1.62,11.76c6.59-.13,13.02-1.16,19.15-2.95l-3.71-10.94"/>
    </clipPath>
    <clipPath id="clippath-35">
      <polygon class="cls-23" points="67.98 122.28 87.09 136.22 100.29 117.98 81.17 104.04 67.98 122.28"/>
    </clipPath>
    <clipPath id="clippath-36">
      <path class="cls-23" d="m55.79,112.06c-4.15-1.57-7.95-3.66-11.31-6.19l-9.66,8.79c4.59,3.56,9.85,6.47,15.65,8.57l5.32-11.17"/>
    </clipPath>
    <clipPath id="clippath-37">
      <polygon class="cls-23" points="26.6 117.23 48.55 133.24 64.01 111.87 42.07 95.86 26.6 117.23"/>
    </clipPath>
    <clipPath id="clippath-38">
      <path class="cls-23" d="m30.95,61.01c1.42-4.11,3.43-8.01,5.95-11.61l-10.54-6.17c-3.56,4.96-6.36,10.36-8.24,16.08l12.83,1.7"/>
    </clipPath>
    <clipPath id="clippath-39">
      <polygon class="cls-23" points="9.7 54.87 30.42 69.98 45.32 49.36 24.61 34.25 9.7 54.87"/>
    </clipPath>
    <clipPath id="clippath-40">
      <path class="cls-23" d="m15.78,81.54c.67,5.72,2.33,11.12,4.85,16.08l11.84-6.17c-1.76-3.6-2.95-7.5-3.5-11.61l-13.19,1.7"/>
    </clipPath>
    <clipPath id="clippath-41">
      <polygon class="cls-23" points="7.36 91.48 26.71 105.6 40.89 85.98 21.55 71.87 7.36 91.48"/>
    </clipPath>
    <clipPath id="clippath-42">
      <path class="cls-23" d="m41.9,103.76c-3.13-2.77-5.79-5.96-7.88-9.47l-12.16,5.59c2.82,4.91,6.52,9.32,10.92,13.1l9.13-9.22"/>
    </clipPath>
    <clipPath id="clippath-43">
      <polygon class="cls-23" points="13 106.53 34.97 122.55 50.75 100.75 28.77 84.73 13 106.53"/>
    </clipPath>
    <clipPath id="clippath-44">
      <path class="cls-24" d="m126.11,23.65l8.53-7.76c-6.02-4.78-13.01-8.63-20.75-11.35l-4.69,9.85c6.28,2.25,11.97,5.39,16.91,9.25"/>
    </clipPath>
    <clipPath id="clippath-45">
      <polygon class="cls-24" points="100.15 17.05 125.85 35.79 143.68 11.14 117.98 -7.6 100.15 17.05"/>
    </clipPath>
    <clipPath id="clippath-46">
      <path class="cls-24" d="m106.76,13.57l5.3-9.65c-7.57-2.45-15.82-3.82-24.55-3.92l-.76,10.37c7.1.12,13.82,1.24,20.01,3.19"/>
    </clipPath>
    <clipPath id="clippath-47">
      <polygon class="cls-24" points="80.32 8.88 103.31 25.65 118.47 4.68 95.48 -12.08 80.32 8.88"/>
    </clipPath>
    <clipPath id="clippath-48">
      <path class="cls-24" d="m63.37,13.57c6.6-1.96,13.56-3.07,20.68-3.19l1.43-10.37c-8.75.1-17.29,1.47-25.38,3.92l3.27,9.65"/>
    </clipPath>
    <clipPath id="clippath-49">
      <polygon class="cls-24" points="53.67 8.88 76.71 25.68 91.89 4.68 68.86 -12.11 53.67 8.88"/>
    </clipPath>
    <clipPath id="clippath-50">
      <path class="cls-24" d="m35,15.89l6.89,7.76c5.75-3.86,12.11-7,18.86-9.25l-2.61-9.85c-8.31,2.72-16.11,6.57-23.14,11.35"/>
    </clipPath>
    <clipPath id="clippath-51">
      <polygon class="cls-24" points="25.95 17.05 51.85 35.94 69.79 11.14 43.88 -7.75 25.95 17.05"/>
    </clipPath>
    <clipPath id="clippath-52">
      <path class="cls-24" d="m40.12,51.28c-2.21,3.19-3.98,6.63-5.25,10.25l13.46,1.79c.75-1.94,1.71-3.8,2.85-5.56l-11.06-6.48"/>
    </clipPath>
    <clipPath id="clippath-53">
      <polygon class="cls-24" points="29.17 59.16 45.55 71.11 56.89 55.44 40.51 43.49 29.17 59.16"/>
    </clipPath>
    <clipPath id="clippath-54">
      <path class="cls-24" d="m81.47,29.12c-4.19.16-8.28.8-12.2,1.88l3.89,11.47c2.14-.53,4.36-.87,6.62-1.02l1.7-12.34"/>
    </clipPath>
    <clipPath id="clippath-55">
      <polygon class="cls-24" points="62.94 37.87 77.25 48.3 87.79 33.74 73.48 23.29 62.94 37.87"/>
    </clipPath>
    <clipPath id="clippath-56">
      <path class="cls-24" d="m65.47,32.2c-3.94,1.4-7.68,3.25-11.12,5.46l8.2,9.22c1.9-1.16,3.93-2.15,6.04-2.96l-3.11-11.72"/>
    </clipPath>
    <clipPath id="clippath-57">
      <polygon class="cls-24" points="47.39 41.81 63.66 53.68 75.53 37.27 59.26 25.4 47.39 41.81"/>
    </clipPath>
    <clipPath id="clippath-58">
      <path class="cls-24" d="m84.47,41.46c2.23.14,4.37.49,6.41,1.02l6.3-11.47c-3.7-1.08-7.66-1.73-11.81-1.88l-.9,12.34"/>
    </clipPath>
    <clipPath id="clippath-59">
      <polygon class="cls-24" points="78.15 37.87 92.8 48.55 103.5 33.74 88.86 23.05 78.15 37.87"/>
    </clipPath>
    <clipPath id="clippath-60">
      <path class="cls-24" d="m58.66,49.59l-7.54-9.68c-3.26,2.45-6.2,5.27-8.72,8.35l11.53,5.86c1.42-1.64,3-3.16,4.73-4.53"/>
    </clipPath>
    <clipPath id="clippath-61">
      <polygon class="cls-24" points="35.67 49.21 53.05 61.88 65.39 44.82 48.01 32.14 35.67 49.21"/>
    </clipPath>
    <clipPath id="clippath-62">
      <path class="cls-24" d="m95.15,43.92c1.94.81,3.75,1.81,5.41,2.96l10.14-9.22c-2.97-2.21-6.33-4.05-9.98-5.46l-5.57,11.72"/>
    </clipPath>
    <clipPath id="clippath-63">
      <polygon class="cls-24" points="88.19 41.81 105.33 54.31 117.65 37.27 100.52 24.77 88.19 41.81"/>
    </clipPath>
    <clipPath id="clippath-64">
      <path class="cls-24" d="m125.13,61.53c-.5-3.62-1.55-7.06-3.09-10.25l-12.42,6.48c.77,1.76,1.34,3.62,1.68,5.56l13.84-1.79"/>
    </clipPath>
    <clipPath id="clippath-65">
      <polygon class="cls-24" points="103.92 59.16 119.78 70.73 130.84 55.44 114.98 43.87 103.92 59.16"/>
    </clipPath>
    <clipPath id="clippath-66">
      <path class="cls-24" d="m113.46,39.91l-9.58,9.68c1.44,1.37,2.71,2.89,3.78,4.53l12.76-5.86c-1.87-3.08-4.21-5.9-6.95-8.35"/>
    </clipPath>
    <clipPath id="clippath-67">
      <polygon class="cls-24" points="97.14 49.21 114.7 62.02 127.14 44.82 109.59 32.01 97.14 49.21"/>
    </clipPath>
    <clipPath id="clippath-68">
      <path class="cls-24" d="m28.05,40.96l10.99,5.59c2.84-3.51,6.16-6.69,9.88-9.47l-7.19-9.22c-5.2,3.78-9.82,8.19-13.68,13.1"/>
    </clipPath>
    <clipPath id="clippath-69">
      <polygon class="cls-24" points="19.2 40.1 41.71 56.51 57.77 34.31 35.26 17.9 19.2 40.1"/>
    </clipPath>
    <clipPath id="clippath-70">
      <path class="cls-24" d="m44.14,26.18l7.81,8.79c3.89-2.53,8.13-4.61,12.61-6.19l-2.96-11.17c-6.24,2.1-12.12,5.01-17.45,8.57"/>
    </clipPath>
    <clipPath id="clippath-71">
      <polygon class="cls-24" points="35.93 28.98 57.51 44.72 72.78 23.61 51.2 7.87 35.93 28.98"/>
    </clipPath>
    <clipPath id="clippath-72">
      <path class="cls-24" d="m116.25,37.08c3.13,2.77,5.79,5.95,7.88,9.47l12.16-5.59c-2.83-4.91-6.52-9.32-10.92-13.1l-9.13,9.22"/>
    </clipPath>
    <clipPath id="clippath-73">
      <polygon class="cls-24" points="107.4 40.1 129.37 56.12 145.14 34.31 123.16 18.29 107.4 40.1"/>
    </clipPath>
    <clipPath id="clippath-74">
      <path class="cls-24" d="m102.35,28.79c4.15,1.57,7.95,3.66,11.3,6.19l9.66-8.79c-4.59-3.56-9.85-6.46-15.65-8.57l-5.31,11.17"/>
    </clipPath>
    <clipPath id="clippath-75">
      <polygon class="cls-24" points="94.13 28.98 116.07 44.98 131.53 23.61 109.59 7.61 94.13 28.98"/>
    </clipPath>
    <clipPath id="clippath-76">
      <path class="cls-24" d="m105.02,16.72c-5.75-1.79-11.97-2.82-18.53-2.95l-.86,11.76c4.72.15,9.2.89,13.38,2.13l6.01-10.94"/>
    </clipPath>
    <clipPath id="clippath-77">
      <polygon class="cls-24" points="79.05 22.86 98.33 36.92 111.6 18.57 92.33 4.51 79.05 22.86"/>
    </clipPath>
    <clipPath id="clippath-78">
      <path class="cls-24" d="m68.13,27.66c4.44-1.24,9.09-1.98,13.83-2.13l1.62-11.76c-6.59.13-13.02,1.16-19.15,2.95l3.7,10.94"/>
    </clipPath>
    <clipPath id="clippath-79">
      <polygon class="cls-24" points="57.86 22.86 76.97 36.8 90.16 18.57 71.04 4.63 57.86 22.86"/>
    </clipPath>
  </defs>
  <g id="Layer_1-2" data-name="Layer 1">
    <g>
      <g>
        <g>
          <g>
            <path class="cls-47" d="m15.2,34.42l9.69,4.92c4.15-5.31,9.15-10.08,14.77-14.15l-6.34-8.14c-6.94,4.95-13.07,10.81-18.12,17.37"/>
            <g class="cls-51">
              <g>
                <polygon class="cls-47" points="4.64 31.65 31.21 51.02 50.21 24.76 23.65 5.38 4.64 31.65"/>
                <g class="cls-35">
                  <path class="cls-23" d="m4.64,31.65l26.57,19.38,19-26.27L23.65,5.38,4.64,31.65Z"/>
                </g>
              </g>
            </g>
          </g>
          <g>
            <path class="cls-47" d="m11.75,79.67c-.2-3.02-.15-6.1.18-9.25.33-3.14.92-6.23,1.76-9.24l-11.14-2.1c-1.06,3.7-1.81,7.48-2.21,11.34-.4,3.86-.46,7.65-.17,11.34l11.57-2.1"/>
            <g class="cls-17">
              <g>
                <polygon class="cls-47" points="-10.84 73.93 8.93 88.35 24.44 66.91 4.67 52.49 -10.84 73.93"/>
                <g class="cls-59">
                  <path class="cls-23" d="m-10.74,73.93l19.71,14.38,15.47-21.39-19.71-14.38-15.47,21.39Z"/>
                </g>
              </g>
            </g>
          </g>
          <g>
            <path class="cls-47" d="m22.08,123.79l8.05-8.14c-4.77-4.07-8.76-8.84-11.79-14.16l-10.73,4.93c3.67,6.55,8.57,12.41,14.47,17.37"/>
            <g class="cls-36">
              <g>
                <polygon class="cls-47" points="-2.95 116.09 22.35 134.54 40.68 109.19 15.39 90.75 -2.95 116.09"/>
                <g class="cls-69">
                  <path class="cls-23" d="m-2.95,116.09l25.3,18.45,18.33-25.34-25.3-18.45L-2.95,116.09Z"/>
                </g>
              </g>
            </g>
          </g>
          <g>
            <path class="cls-47" d="m51.39,127.28l-5.3,9.65c7.57,2.45,15.82,3.82,24.55,3.92l.76-10.37c-7.1-.12-13.82-1.24-20.01-3.19"/>
            <g class="cls-26">
              <g>
                <polygon class="cls-47" points="39.67 136.16 62.66 152.93 77.82 131.96 54.83 115.2 39.67 136.16"/>
                <g class="cls-31">
                  <path class="cls-23" d="m39.67,136.16l22.99,16.77,15.16-20.97-22.99-16.77-15.16,20.97Z"/>
                </g>
              </g>
            </g>
          </g>
          <g>
            <path class="cls-47" d="m94.78,127.28c-6.61,1.96-13.57,3.07-20.69,3.19l-1.43,10.37c8.75-.09,17.29-1.47,25.37-3.92l-3.26-9.65"/>
            <g class="cls-62">
              <g>
                <polygon class="cls-47" points="66.24 136.16 89.28 152.96 104.46 131.96 81.43 115.17 66.24 136.16"/>
                <g class="cls-49">
                  <path class="cls-23" d="m66.24,136.16l23.03,16.8,15.18-21-23.03-16.8-15.18,21Z"/>
                </g>
              </g>
            </g>
          </g>
          <g>
            <path class="cls-47" d="m14.42,58.8c2-6.18,5.03-12.03,8.89-17.37l-9.3-5.45c-4.79,6.53-8.51,13.7-10.92,21.31l11.32,1.5"/>
            <g class="cls-73">
              <g>
                <polygon class="cls-47" points="-7.7 50.93 16.33 68.46 34.12 43.87 10.08 26.34 -7.7 50.93"/>
                <g class="cls-7">
                  <path class="cls-23" d="m-7.7,50.93l24.03,17.54,17.78-24.59L10.08,26.34-7.7,50.93Z"/>
                </g>
              </g>
            </g>
          </g>
          <g>
            <path class="cls-47" d="m.33,83.54c.8,7.61,3.02,14.78,6.43,21.31l10.45-5.45c-2.74-5.34-4.54-11.19-5.24-17.37l-11.64,1.51"/>
            <g class="cls-42">
              <g>
                <polygon class="cls-47" points="-10.47 96.98 11.38 112.91 28.01 89.92 6.16 73.98 -10.47 96.98"/>
                <g class="cls-18">
                  <path class="cls-23" d="m-10.47,96.98l21.85,15.94,16.63-22.99-21.85-15.94-16.63,22.99Z"/>
                </g>
              </g>
            </g>
          </g>
          <g>
            <path class="cls-47" d="m32.03,117.2l-8.53,7.76c6.02,4.78,13.01,8.63,20.75,11.35l4.68-9.85c-6.27-2.25-11.97-5.39-16.91-9.25"/>
            <g class="cls-67">
              <g>
                <polygon class="cls-47" points="14.46 129.7 40.16 148.45 57.99 123.8 32.29 105.05 14.46 129.7"/>
                <g class="cls-25">
                  <path class="cls-23" d="m14.46,129.7l25.7,18.74,17.83-24.65-25.7-18.74-17.83,24.65Z"/>
                </g>
              </g>
            </g>
          </g>
        </g>
        <g>
          <g>
            <g>
              <path class="cls-47" d="m47.09,67.46l-13.25-2.5c-.45,1.78-.78,3.61-.98,5.45-.2,1.85-.25,3.67-.17,5.45l13.78-2.49c0-.98.04-1.96.14-2.96.1-1,.27-1.98.48-2.96"/>
              <g class="cls-8">
                <g>
                  <polygon class="cls-47" points="27.45 72.11 42.09 82.79 52.25 68.73 37.62 58.06 27.45 72.11"/>
                  <g class="cls-68">
                    <path class="cls-23" d="m27.45,72.11l14.64,10.68,10.16-14.05-14.64-10.67-10.16,14.05Z"/>
                  </g>
                </g>
              </g>
            </g>
            <g>
              <path class="cls-47" d="m44.69,100.94l9.58-9.68c-1.44-1.37-2.7-2.89-3.78-4.53l-12.76,5.86c1.87,3.08,4.22,5.9,6.96,8.35"/>
              <g class="cls-66">
                <g>
                  <polygon class="cls-47" points="31 96.03 48.56 108.84 61 91.64 43.44 78.83 31 96.03"/>
                  <g class="cls-56">
                    <path class="cls-23" d="m31,96.03l17.56,12.81,12.44-17.2-17.56-12.81-12.44,17.2Z"/>
                  </g>
                </g>
              </g>
            </g>
            <g>
              <path class="cls-47" d="m92.67,108.65c3.94-1.4,7.68-3.25,11.12-5.46l-8.2-9.22c-1.91,1.16-3.93,2.15-6.04,2.96l3.11,11.72"/>
              <g class="cls-6">
                <g>
                  <polygon class="cls-47" points="82.61 103.57 98.88 115.44 110.75 99.03 94.48 87.16 82.61 103.57"/>
                  <g class="cls-32">
                    <path class="cls-23" d="m82.61,103.57l16.27,11.87,11.87-16.41-16.28-11.87-11.86,16.41Z"/>
                  </g>
                </g>
              </g>
            </g>
            <g>
              <path class="cls-47" d="m48.52,83.09c-.77-1.76-1.33-3.62-1.68-5.56l-13.84,1.79c.51,3.62,1.56,7.06,3.09,10.25l12.42-6.48"/>
              <g class="cls-48">
                <g>
                  <polygon class="cls-47" points="27.3 85.41 43.16 96.97 54.22 81.68 38.36 70.11 27.3 85.41"/>
                  <g class="cls-74">
                    <path class="cls-23" d="m27.3,85.41l15.86,11.56,11.06-15.29-15.85-11.57-11.06,15.29Z"/>
                  </g>
                </g>
              </g>
            </g>
            <g>
              <path class="cls-47" d="m73.67,99.39c-2.23-.14-4.37-.49-6.41-1.02l-6.3,11.47c3.7,1.08,7.66,1.73,11.81,1.88l.9-12.34"/>
              <g class="cls-44">
                <g>
                  <polygon class="cls-47" points="54.64 107.11 69.28 117.79 79.99 102.98 65.35 92.3 54.64 107.11"/>
                  <g class="cls-21">
                    <path class="cls-23" d="m54.64,107.11l14.64,10.68,10.71-14.81-14.64-10.68-10.71,14.81Z"/>
                  </g>
                </g>
              </g>
            </g>
            <g>
              <path class="cls-47" d="m63,96.93c-1.94-.81-3.75-1.81-5.42-2.96l-10.14,9.22c2.97,2.21,6.32,4.05,9.98,5.46l5.58-11.72"/>
              <g class="cls-29">
                <g>
                  <polygon class="cls-47" points="40.49 103.57 57.63 116.07 69.95 99.03 52.81 86.54 40.49 103.57"/>
                  <g class="cls-39">
                    <path class="cls-23" d="m40.49,103.57l17.14,12.5,12.32-17.04-17.13-12.5-12.33,17.04Z"/>
                  </g>
                </g>
              </g>
            </g>
            <g>
              <path class="cls-47" d="m76.67,111.72c4.18-.16,8.28-.8,12.2-1.88l-3.89-11.47c-2.15.53-4.37.87-6.62,1.02l-1.69,12.34"/>
              <g class="cls-81">
                <g>
                  <polygon class="cls-47" points="70.35 107.11 84.66 117.55 95.2 102.98 80.89 92.54 70.35 107.11"/>
                  <g class="cls-65">
                    <path class="cls-23" d="m70.35,107.11l14.31,10.44,10.54-14.57-14.31-10.44-10.54,14.57Z"/>
                  </g>
                </g>
              </g>
            </g>
          </g>
          <g>
            <g>
              <path class="cls-47" d="m15.73,70.42c-.31,2.91-.36,5.76-.18,8.56l13.13-2.38c-.1-2.02-.05-4.08.17-6.18.22-2.09.6-4.16,1.13-6.17l-12.63-2.38c-.76,2.79-1.31,5.65-1.62,8.55"/>
              <g class="cls-45">
                <g>
                  <polygon class="cls-47" points="7.27 73.07 24.93 85.96 38.09 67.77 20.42 54.89 7.27 73.07"/>
                  <g class="cls-57">
                    <path class="cls-23" d="m7.27,73.07l17.67,12.89,13.15-18.18-17.67-12.89-13.15,18.18Z"/>
                  </g>
                </g>
              </g>
            </g>
            <g>
              <path class="cls-47" d="m53.12,124.12c5.75,1.79,11.97,2.82,18.52,2.95l.86-11.76c-4.71-.15-9.2-.89-13.38-2.13l-6,10.94"/>
              <g class="cls-16">
                <g>
                  <polygon class="cls-47" points="46.54 122.28 65.81 136.34 79.08 117.98 59.81 103.93 46.54 122.28"/>
                  <g class="cls-11">
                    <path class="cls-23" d="m46.54,122.28l19.27,14.05,13.27-18.35-19.27-14.06-13.27,18.36Z"/>
                  </g>
                </g>
              </g>
            </g>
            <g>
              <path class="cls-47" d="m90.01,113.19c-4.44,1.24-9.08,1.98-13.83,2.13l-1.62,11.76c6.59-.13,13.02-1.16,19.15-2.95l-3.71-10.94"/>
              <g class="cls-33">
                <g>
                  <polygon class="cls-47" points="67.98 122.28 87.09 136.22 100.29 117.98 81.17 104.04 67.98 122.28"/>
                  <g class="cls-84">
                    <path class="cls-23" d="m67.98,122.28l19.11,13.94,13.2-18.23-19.12-13.94-13.19,18.24Z"/>
                  </g>
                </g>
              </g>
            </g>
            <g>
              <path class="cls-47" d="m55.79,112.06c-4.15-1.57-7.95-3.66-11.31-6.19l-9.66,8.79c4.59,3.56,9.85,6.47,15.65,8.57l5.32-11.17"/>
              <g class="cls-38">
                <g>
                  <polygon class="cls-47" points="26.6 117.23 48.55 133.24 64.01 111.87 42.07 95.86 26.6 117.23"/>
                  <g class="cls-19">
                    <path class="cls-23" d="m26.61,117.23l21.94,16.01,15.46-21.37-21.95-16.01-15.46,21.37Z"/>
                  </g>
                </g>
              </g>
            </g>
            <g>
              <path class="cls-47" d="m30.95,61.01c1.42-4.11,3.43-8.01,5.95-11.61l-10.54-6.17c-3.56,4.96-6.36,10.36-8.24,16.08l12.83,1.7"/>
              <g class="cls-37">
                <g>
                  <polygon class="cls-47" points="9.7 54.87 30.42 69.98 45.32 49.36 24.61 34.25 9.7 54.87"/>
                  <g class="cls-55">
                    <path class="cls-23" d="m9.7,54.87l20.72,15.11,14.91-20.61-20.72-15.11-14.91,20.61Z"/>
                  </g>
                </g>
              </g>
            </g>
            <g>
              <path class="cls-47" d="m15.78,81.54c.67,5.72,2.33,11.12,4.85,16.08l11.84-6.17c-1.76-3.6-2.95-7.5-3.5-11.61l-13.19,1.7"/>
              <g class="cls-28">
                <g>
                  <polygon class="cls-47" points="7.36 91.48 26.71 105.6 40.89 85.98 21.55 71.87 7.36 91.48"/>
                  <g class="cls-15">
                    <path class="cls-23" d="m7.36,91.48l19.35,14.11,14.19-19.62-19.34-14.11-14.19,19.62Z"/>
                  </g>
                </g>
              </g>
            </g>
            <g>
              <path class="cls-47" d="m41.9,103.76c-3.13-2.77-5.79-5.96-7.88-9.47l-12.16,5.59c2.82,4.91,6.52,9.32,10.92,13.1l9.13-9.22"/>
              <g class="cls-71">
                <g>
                  <polygon class="cls-47" points="13 106.53 34.97 122.55 50.75 100.75 28.77 84.73 13 106.53"/>
                  <g class="cls-60">
                    <path class="cls-23" d="m13,106.53l21.97,16.02,15.77-21.8-21.98-16.02-15.77,21.8Z"/>
                  </g>
                </g>
              </g>
            </g>
          </g>
        </g>
      </g>
      <g>
        <g>
          <g>
            <path class="cls-43" d="m126.11,23.65l8.53-7.76c-6.02-4.78-13.01-8.63-20.75-11.35l-4.69,9.85c6.28,2.25,11.97,5.39,16.91,9.25"/>
            <g class="cls-41">
              <g>
                <polygon class="cls-43" points="100.15 17.05 125.85 35.79 143.68 11.14 117.98 -7.6 100.15 17.05"/>
                <g class="cls-4">
                  <path class="cls-24" d="m100.15,17.05l25.7,18.74,17.83-24.65-25.7-18.75-17.83,24.66Z"/>
                </g>
              </g>
            </g>
          </g>
          <g>
            <path class="cls-43" d="m106.76,13.57l5.3-9.65c-7.57-2.45-15.82-3.82-24.55-3.92l-.76,10.37c7.1.12,13.82,1.24,20.01,3.19"/>
            <g class="cls-20">
              <g>
                <polygon class="cls-43" points="80.32 8.88 103.31 25.65 118.47 4.68 95.48 -12.08 80.32 8.88"/>
                <g class="cls-13">
                  <path class="cls-24" d="m80.32,8.88l22.99,16.77,15.16-20.97-22.99-16.77-15.16,20.97Z"/>
                </g>
              </g>
            </g>
          </g>
          <g>
            <path class="cls-43" d="m63.37,13.57c6.6-1.96,13.56-3.07,20.68-3.19l1.43-10.37c-8.75.1-17.29,1.47-25.38,3.92l3.27,9.65"/>
            <g class="cls-53">
              <g>
                <polygon class="cls-43" points="53.67 8.88 76.71 25.68 91.89 4.68 68.86 -12.11 53.67 8.88"/>
                <g class="cls-78">
                  <path class="cls-24" d="m53.67,8.88l23.03,16.8,15.18-21-23.03-16.8-15.18,21Z"/>
                </g>
              </g>
            </g>
          </g>
          <g>
            <path class="cls-43" d="m35,15.89l6.89,7.76c5.75-3.86,12.11-7,18.86-9.25l-2.61-9.85c-8.31,2.72-16.11,6.57-23.14,11.35"/>
            <g class="cls-52">
              <g>
                <polygon class="cls-43" points="25.95 17.05 51.85 35.94 69.79 11.14 43.88 -7.75 25.95 17.05"/>
                <g class="cls-80">
                  <path class="cls-24" d="m25.95,17.05l25.9,18.89,17.94-24.8L43.88-7.75l-17.93,24.8Z"/>
                </g>
              </g>
            </g>
          </g>
        </g>
        <g>
          <g>
            <g>
              <path class="cls-43" d="m40.12,51.28c-2.21,3.19-3.98,6.63-5.25,10.25l13.46,1.79c.75-1.94,1.71-3.8,2.85-5.56l-11.06-6.48"/>
              <g class="cls-50">
                <g>
                  <polygon class="cls-43" points="29.17 59.16 45.55 71.11 56.89 55.44 40.51 43.49 29.17 59.16"/>
                  <g class="cls-77">
                    <path class="cls-24" d="m29.17,59.16l16.38,11.94,11.33-15.67-16.37-11.94-11.34,15.67Z"/>
                  </g>
                </g>
              </g>
            </g>
            <g>
              <g>
                <path class="cls-43" d="m81.47,29.12c-4.19.16-8.28.8-12.2,1.88l3.89,11.47c2.14-.53,4.36-.87,6.62-1.02l1.7-12.34"/>
                <g class="cls-58">
                  <g>
                    <polygon class="cls-43" points="62.94 37.87 77.25 48.3 87.79 33.74 73.48 23.29 62.94 37.87"/>
                    <g class="cls-63">
                      <path class="cls-24" d="m62.94,37.87l14.31,10.44,10.54-14.57-14.31-10.44-10.54,14.57Z"/>
                    </g>
                  </g>
                </g>
              </g>
              <g>
                <path class="cls-43" d="m65.47,32.2c-3.94,1.4-7.68,3.25-11.12,5.46l8.2,9.22c1.9-1.16,3.93-2.15,6.04-2.96l-3.11-11.72"/>
                <g class="cls-76">
                  <g>
                    <polygon class="cls-43" points="47.39 41.81 63.66 53.68 75.53 37.27 59.26 25.4 47.39 41.81"/>
                    <g class="cls-34">
                      <path class="cls-24" d="m47.39,41.81l16.27,11.87,11.87-16.41-16.27-11.87-11.87,16.41Z"/>
                    </g>
                  </g>
                </g>
              </g>
              <g>
                <path class="cls-43" d="m84.47,41.46c2.23.14,4.37.49,6.41,1.02l6.3-11.47c-3.7-1.08-7.66-1.73-11.81-1.88l-.9,12.34"/>
                <g class="cls-70">
                  <g>
                    <polygon class="cls-43" points="78.15 37.87 92.8 48.55 103.5 33.74 88.86 23.05 78.15 37.87"/>
                    <g class="cls-9">
                      <path class="cls-24" d="m78.15,37.87l14.65,10.68,10.71-14.81-14.65-10.69-10.71,14.82Z"/>
                    </g>
                  </g>
                </g>
              </g>
              <g>
                <path class="cls-43" d="m58.66,49.59l-7.54-9.68c-3.26,2.45-6.2,5.27-8.72,8.35l11.53,5.86c1.42-1.64,3-3.16,4.73-4.53"/>
                <g class="cls-40">
                  <g>
                    <polygon class="cls-43" points="35.67 49.21 53.05 61.88 65.39 44.82 48.01 32.14 35.67 49.21"/>
                    <g class="cls-54">
                      <path class="cls-24" d="m35.67,49.21l17.38,12.67,12.34-17.07-17.37-12.67-12.35,17.07Z"/>
                    </g>
                  </g>
                </g>
              </g>
              <g>
                <g>
                  <path class="cls-43" d="m95.15,43.92c1.94.81,3.75,1.81,5.41,2.96l10.14-9.22c-2.97-2.21-6.33-4.05-9.98-5.46l-5.57,11.72"/>
                  <g class="cls-3">
                    <g>
                      <polygon class="cls-43" points="88.19 41.81 105.33 54.31 117.65 37.27 100.52 24.77 88.19 41.81"/>
                      <g class="cls-5">
                        <path class="cls-24" d="m88.19,41.81l17.14,12.5,12.33-17.04-17.14-12.5-12.33,17.04Z"/>
                      </g>
                    </g>
                  </g>
                </g>
                <g>
                  <path class="cls-43" d="m125.13,61.53c-.5-3.62-1.55-7.06-3.09-10.25l-12.42,6.48c.77,1.76,1.34,3.62,1.68,5.56l13.84-1.79"/>
                  <g class="cls-12">
                    <g>
                      <polygon class="cls-43" points="103.92 59.16 119.78 70.73 130.84 55.44 114.98 43.87 103.92 59.16"/>
                      <g class="cls-72">
                        <path class="cls-24" d="m103.92,59.16l15.86,11.57,11.06-15.29-15.86-11.56-11.06,15.29Z"/>
                      </g>
                    </g>
                  </g>
                </g>
                <g>
                  <path class="cls-43" d="m113.46,39.91l-9.58,9.68c1.44,1.37,2.71,2.89,3.78,4.53l12.76-5.86c-1.87-3.08-4.21-5.9-6.95-8.35"/>
                  <g class="cls-85">
                    <g>
                      <polygon class="cls-43" points="97.14 49.21 114.7 62.02 127.14 44.82 109.59 32.01 97.14 49.21"/>
                      <g class="cls-79">
                        <path class="cls-24" d="m97.14,49.21l17.56,12.81,12.44-17.2-17.55-12.81-12.44,17.2Z"/>
                      </g>
                    </g>
                  </g>
                </g>
              </g>
            </g>
          </g>
          <g>
            <g>
              <path class="cls-43" d="m28.05,40.96l10.99,5.59c2.84-3.51,6.16-6.69,9.88-9.47l-7.19-9.22c-5.2,3.78-9.82,8.19-13.68,13.1"/>
              <g class="cls-83">
                <g>
                  <polygon class="cls-43" points="19.2 40.1 41.71 56.51 57.77 34.31 35.26 17.9 19.2 40.1"/>
                  <g class="cls-64">
                    <path class="cls-24" d="m19.2,40.1l22.51,16.42,16.05-22.2-22.5-16.42-16.06,22.2Z"/>
                  </g>
                </g>
              </g>
            </g>
            <g>
              <path class="cls-43" d="m44.14,26.18l7.81,8.79c3.89-2.53,8.13-4.61,12.61-6.19l-2.96-11.17c-6.24,2.1-12.12,5.01-17.45,8.57"/>
              <g class="cls-61">
                <g>
                  <polygon class="cls-43" points="35.93 28.98 57.51 44.72 72.78 23.61 51.2 7.87 35.93 28.98"/>
                  <g class="cls-82">
                    <path class="cls-24" d="m35.93,28.98l21.58,15.75,15.27-21.11-21.58-15.75-15.27,21.11Z"/>
                  </g>
                </g>
              </g>
            </g>
            <g>
              <g>
                <path class="cls-43" d="m116.25,37.08c3.13,2.77,5.79,5.95,7.88,9.47l12.16-5.59c-2.83-4.91-6.52-9.32-10.92-13.1l-9.13,9.22"/>
                <g class="cls-2">
                  <g>
                    <polygon class="cls-43" points="107.4 40.1 129.37 56.12 145.14 34.31 123.16 18.29 107.4 40.1"/>
                    <g class="cls-1">
                      <path class="cls-24" d="m107.4,40.1l21.97,16.02,15.77-21.8-21.97-16.02-15.77,21.8Z"/>
                    </g>
                  </g>
                </g>
              </g>
              <g>
                <path class="cls-43" d="m102.35,28.79c4.15,1.57,7.95,3.66,11.3,6.19l9.66-8.79c-4.59-3.56-9.85-6.46-15.65-8.57l-5.31,11.17"/>
                <g class="cls-75">
                  <g>
                    <polygon class="cls-43" points="94.13 28.98 116.07 44.98 131.53 23.61 109.59 7.61 94.13 28.98"/>
                    <g class="cls-30">
                      <path class="cls-24" d="m94.13,28.98l21.94,16.01,15.46-21.37-21.95-16.01-15.46,21.37Z"/>
                    </g>
                  </g>
                </g>
              </g>
              <g>
                <path class="cls-43" d="m105.02,16.72c-5.75-1.79-11.97-2.82-18.53-2.95l-.86,11.76c4.72.15,9.2.89,13.38,2.13l6.01-10.94"/>
                <g class="cls-27">
                  <g>
                    <polygon class="cls-43" points="79.05 22.86 98.33 36.92 111.6 18.57 92.33 4.51 79.05 22.86"/>
                    <g class="cls-14">
                      <path class="cls-24" d="m79.05,22.86l19.27,14.06,13.27-18.35-19.27-14.06-13.27,18.35Z"/>
                    </g>
                  </g>
                </g>
              </g>
              <g>
                <path class="cls-43" d="m68.13,27.66c4.44-1.24,9.09-1.98,13.83-2.13l1.62-11.76c-6.59.13-13.02,1.16-19.15,2.95l3.7,10.94"/>
                <g class="cls-10">
                  <g>
                    <polygon class="cls-43" points="57.86 22.86 76.97 36.8 90.16 18.57 71.04 4.63 57.86 22.86"/>
                    <g class="cls-46">
                      <path class="cls-24" d="m57.86,22.86l19.11,13.94,13.19-18.23-19.11-13.94-13.19,18.23Z"/>
                    </g>
                  </g>
                </g>
              </g>
            </g>
          </g>
        </g>
      </g>
      <g>
        <path class="cls-22" d="m173.42,125.16h13.78v-54.22c0-.36-.36-.81-1-.81h-11.96c-.36,0-.82.27-1,.54l-24.75,53.13-26.02-53.13c-.09-.27-.64-.54-.91-.54h-12.15c-.64,0-.91.46-.91.81v70.9c0,.36.27.81.91.81h11.97c.54,0,.99-.45.99-.81v-40.71l19.68,38.08c.09.27.63.54.9.54h11.15c.27,0,.73-.27.81-.54l18.49-37.08v23.03Z"/>
        <path class="cls-22" d="m249.03,141.29l-29.1-34.27,28.83-35.53c.64-.64.18-1.36-.81-1.36h-14.78c-.18,0-.72.18-.81.27l-27.29,33.55v-33c0-.36-.36-.81-.9-.81h-11.97c-.55,0-1,.46-1,.81v67.27s17.68-20.04,19.49-21.94l21.12,26.11c.09.09.64.27.81.27h15.6c.91,0,1.36-.64.81-1.36Z"/>
        <path class="cls-22" d="m309.13,141.56l-27.56-70.9c-.28-.72-1.54-.72-1.81,0l-27.47,70.9c-.27.54.09,1.09.91,1.09h12.42c.36,0,.81-.18.91-.54l14.15-40.44,14.32,40.44c.09.36.54.54.81.54h12.51c.64,0,1.09-.54.81-1.09Z"/>
        <path class="cls-22" d="m347.38,91.7c0,7.98-10.7,7.98-10.7,7.98h-10.88v-16.59h10.88s10.7-.09,10.7,8.61Zm13.87-.81c0-21.31-24.57-20.76-24.57-20.76h-23.66c-.55,0-1,.46-1,.81v42.25h24.66s11.7-.54,11.7,7.98c0,6.98-7.16,8.25-11.7,8.25h-10.79v13.24h10.79c4.9,0,25.57-.91,25.57-21.12,0,0,.45-11.24-11.06-15.14,5.53-2.27,10.06-7.08,10.06-15.5Z"/>
      </g>
      <g>
        <g>
          <path class="cls-22" d="m115.1,169.74v1.04h-4.96c-.89,0-1.59-.12-2.1-.37-.5-.25-.86-.64-1.08-1.18-.22-.54-.33-1.28-.33-2.22s.1-1.65.31-2.2c.22-.57.57-.98,1.06-1.23.5-.26,1.16-.39,1.99-.39.37,0,.93.02,1.68.06.76.03,1.33.06,1.72.1v6.4h1.7Zm-7.33-2.76c0,.68.08,1.22.25,1.62.17.4.43.7.79.87.37.18.88.27,1.54.27h1.91v-5.44c-.87-.05-1.55-.08-2.04-.08-.9,0-1.54.22-1.91.64-.36.43-.54,1.14-.54,2.12Zm1.16-6.29h1.14v1.27h-1.14v-1.27Zm1.87,0h1.12v1.27h-1.12v-1.27Z"/>
          <path class="cls-22" d="m118.47,163.32v7.46h-3.36v-1.04h2.22v-6.42h1.14Zm-1.14-2.64h1.12v1.27h-1.12v-1.27Z"/>
          <path class="cls-22" d="m123.55,169.74v1.04h-2.53v-10.72h1.14v9.68h1.39Z"/>
          <path class="cls-22" d="m129.14,169.74v1.04h-5.59v-1.04h2.22v-6.42h1.14v6.42h2.22Zm-4.3,2.22h1.14v1.27h-1.14v-1.27Zm1.87,0h1.12v1.27h-1.12v-1.27Z"/>
          <path class="cls-22" d="m141.5,169.74v1.04h-12.36v-1.04h2.18v-6.42h1.14v2.39c.44-.55.84-1,1.2-1.35.37-.36.8-.64,1.29-.85.48-.22,1.04-.33,1.68-.33,1.26,0,2.14.39,2.66,1.16.52.76.79,1.66.79,2.7v2.7h1.41Zm-4.98-5.55c-.61,0-1.18.18-1.7.52-.53.33-.96.7-1.29,1.08-.33.37-.69.83-1.06,1.37v2.58h6.48v-2.53c0-.86-.21-1.57-.62-2.14-.42-.58-1.02-.87-1.81-.87Z"/>
          <path class="cls-22" d="m146.37,169.74v1.04h-4.88v-1.04h1.83v-9.68h1.16v9.68h1.89Z"/>
          <path class="cls-22" d="m149.35,160.06v10.72h-2.99v-1.04h1.83v-9.68h1.16Z"/>
          <path class="cls-22" d="m158.49,174.48c-.74,0-1.4-.14-1.99-.42-.6-.26-1.07-.64-1.41-1.12-.35-.47-.52-1.02-.52-1.64s.12-1.71.37-3.3l1.1.19c-.22,1.47-.33,2.42-.33,2.87,0,.47.11.88.35,1.25.25.37.58.65,1,.85.42.21.86.31,1.35.31h3.95c.69,0,1.23-.23,1.62-.69.38-.45.58-1.01.58-1.7,0-.38-.07-.71-.21-.96-.14-.25-.37-.46-.71-.62-.33-.18-.8-.33-1.39-.46-.82-.17-1.45-.36-1.91-.58-.45-.22-.77-.51-.98-.87-.21-.37-.31-.86-.31-1.47,0-1.85,1.11-2.78,3.32-2.78.76,0,1.8.1,3.12.29l-.1.98c-1.43-.17-2.4-.25-2.93-.25-1.5,0-2.24.56-2.24,1.68,0,.43.07.76.21.98.15.22.4.4.75.54.34.14.89.29,1.64.46.71.17,1.27.37,1.68.62.43.24.73.55.91.93.19.37.29.85.29,1.41,0,1.06-.29,1.92-.85,2.55-.57.63-1.39.96-2.45.96h-3.9Zm.12,1.06h1.14v1.27h-1.14v-1.27Zm1.87,0h1.12v1.27h-1.12v-1.27Z"/>
          <path class="cls-22" d="m170.37,163.03c.4,0,.88.04,1.43.1.57.06,1.04.12,1.41.19v6.52c0,1.59-.2,2.76-.6,3.51-.39.75-1.07,1.12-2.04,1.12-.46,0-1.2-.08-2.24-.23v-1.02c.92.15,1.65.23,2.18.23.34,0,.62-.06.83-.19.22-.12.39-.38.52-.77.13-.39.21-.97.21-1.72h-2.2c-1.08,0-1.8-.34-2.16-1.02-.35-.69-.52-1.58-.52-2.68,0-.92.09-1.68.27-2.26.18-.58.5-1.02.96-1.33.47-.3,1.12-.46,1.95-.46Zm-2.04,4.01c0,.8.12,1.45.37,1.95.26.5.79.75,1.6.75h1.77v-5.57c-.54-.07-1.01-.1-1.41-.1-.61,0-1.09.11-1.43.33-.33.22-.57.56-.71,1-.12.43-.19.98-.19,1.64Z"/>
          <path class="cls-22" d="m177.98,169.74v1.04h-2.53v-10.72h1.14v9.68h1.39Z"/>
          <path class="cls-22" d="m185.72,163.49v7.29h-7.73v-1.04h2.12c-.26-.52-.39-1.36-.39-2.51,0-1.02.1-1.81.31-2.37.21-.55.56-.94,1.06-1.16.51-.23,1.23-.35,2.16-.35.75,0,1.43.04,2.06.1l.42.04Zm-4.88,3.72c0,1.26.19,2.11.56,2.53h3.18v-5.34c-.68-.05-1.16-.08-1.43-.08-.64,0-1.12.1-1.45.29-.32.18-.54.48-.66.89-.12.4-.19.97-.19,1.7Zm.66-6.52h1.14v1.27h-1.14v-1.27Zm1.87,0h1.12v1.27h-1.12v-1.27Z"/>
          <path class="cls-22" d="m192.63,170.78h-1.87v.17c0,2.37-.82,3.55-2.45,3.55-.17,0-.32-.01-.46-.02-.12-.02-.24-.02-.33-.02l-.31-.04v-1.02c.5.04.81.06.93.06.5,0,.86-.2,1.1-.58.25-.39.37-.93.37-1.64v-7.89h1.14v6.4h1.87v1.04Z"/>
          <path class="cls-22" d="m198.22,169.74v1.04h-5.59v-1.04h2.22v-6.42h1.14v6.42h2.22Zm-3.36,2.22h1.12v1.27h-1.12v-1.27Z"/>
          <path class="cls-22" d="m201.21,160.06v10.72h-2.99v-1.04h1.83v-9.68h1.16Z"/>
          <path class="cls-22" d="m203.89,160.06h1.14v10.72h-1.14v-10.72Z"/>
          <path class="cls-22" d="m220.89,157.84l-.77.35v-2.82l.77-.33v2.8Zm-1.18,3.12c-.26,0-.47-.07-.6-.23-.12-.15-.19-.38-.19-.71,0-.3,0-.55.02-.73l.54-.12v.75c0,.16.03.28.08.37.07.08.17.12.31.1.12-.01.22-.07.29-.17.07-.11.1-.25.1-.42v-.56l.52-.1v.64c0,.1.04.18.12.25.09.07.19.09.29.06l.33-.06v-1.29l.5-.1c.05.29.08.59.08.89v.96l-.85.15s-.11.02-.21.02c-.22,0-.38-.08-.48-.25-.1.36-.39.54-.87.54Zm4.51-.89h1.16v10.72h-11.61c-.89,0-1.59-.12-2.1-.37-.5-.25-.86-.64-1.08-1.18-.22-.54-.33-1.28-.33-2.22s.1-1.65.31-2.2c.22-.57.57-.98,1.06-1.23.5-.26,1.16-.39,1.99-.39.37,0,.93.02,1.68.06.76.03,1.33.06,1.72.1v6.4h3.12v-7.87h1.16v7.87h2.91v-9.68Zm4.9,0v10.72h-1.14v-10.72h1.14Zm-17.71,6.92c0,.68.08,1.22.25,1.62.17.4.43.7.79.87.37.18.88.27,1.54.27h1.91v-5.44c-.87-.05-1.55-.08-2.04-.08-.9,0-1.54.22-1.91.64-.36.43-.54,1.14-.54,2.12Z"/>
          <path class="cls-22" d="m238.44,169.74v1.04h-7.39v-1.04h4.84v-1.72c0-1.46-.29-2.5-.85-3.09-.57-.59-1.24-.89-2.01-.89h-1.2l-.08-.83c.11-.04.31-.08.6-.12.3-.04.6-.06.89-.06,1.08,0,1.98.39,2.7,1.18.73.78,1.1,2.05,1.1,3.8v1.74h1.41Z"/>
          <path class="cls-22" d="m244.02,169.74v1.04h-5.59v-1.04h2.22v-6.42h1.14v6.42h2.22Zm-3.36,2.22h1.12v1.27h-1.12v-1.27Z"/>
          <path class="cls-22" d="m251.87,169.74v1.04h-7.85v-1.04h2.78c-.28-.32-.51-.74-.71-1.27-.18-.54-.27-1.13-.27-1.79,0-1.05.27-1.9.81-2.53.54-.65,1.31-.98,2.33-.98.38,0,.8.06,1.25.17.44.1.85.24,1.23.44l-.04,1c-.16-.11-.47-.23-.96-.37-.49-.13-.93-.21-1.33-.21-.7,0-1.23.23-1.6.69-.36.46-.54,1.08-.54,1.87,0,.65.11,1.24.35,1.77.23.51.52.92.87,1.23h3.68Z"/>
          <path class="cls-22" d="m263.6,169.74v1.04h-7.39v-1.04h4.84v-1.72c0-1.46-.29-2.5-.85-3.09-.57-.59-1.24-.89-2.01-.89h-1.2l-.08-.83c.11-.04.31-.08.6-.12.3-.04.6-.06.89-.06,1.08,0,1.98.39,2.7,1.18.73.78,1.1,2.05,1.1,3.8v1.74h1.41Z"/>
          <path class="cls-22" d="m266.59,160.06v10.72h-2.99v-1.04h1.83v-9.68h1.16Z"/>
          <path class="cls-22" d="m271.8,169.74v1.04h-2.53v-10.72h1.14v9.68h1.39Z"/>
          <path class="cls-22" d="m276.48,163.18c1.63,0,2.45.85,2.45,2.55v5.05h-7.12v-1.04h5.98v-4.03c0-.5-.13-.87-.39-1.12-.25-.26-.64-.39-1.16-.39-.45,0-1.33.08-2.66.25l-.42.04-.04-.85c1.51-.3,2.63-.46,3.36-.46Zm-1.08-2.49h1.12v1.27h-1.12v-1.27Z"/>
          <path class="cls-22" d="m291.1,169.74v1.04h-7.39v-1.04h4.84v-1.72c0-1.46-.29-2.5-.85-3.09-.57-.59-1.24-.89-2.01-.89h-1.2l-.08-.83c.11-.04.31-.08.6-.12.3-.04.6-.06.89-.06,1.08,0,1.98.39,2.7,1.18.73.78,1.1,2.05,1.1,3.8v1.74h1.41Z"/>
          <path class="cls-22" d="m299.92,169.74v1.04h-8.83v-1.04h5.98v-4.03c0-.5-.13-.87-.39-1.12-.25-.26-.64-.39-1.16-.39-.45,0-1.33.08-2.66.25l-.42.04-.04-.85c1.51-.3,2.63-.46,3.36-.46,1.63,0,2.45.85,2.45,2.55v4.01h1.7Zm-4.98,2.22h1.12v1.27h-1.12v-1.27Z"/>
          <path class="cls-22" d="m305.05,163.18c1.21,0,2.11.3,2.68.89.58.6.87,1.59.87,2.97v3.74h-8.68v-1.04h2.45c-.14-.84-.21-1.71-.21-2.6,0-.66.04-1.32.12-1.97.08-.65.17-1.18.27-1.6.23-.09.58-.19,1.04-.27s.94-.12,1.45-.12Zm-1.72,3.97c0,.49.02.97.06,1.45.04.49.09.87.15,1.14h3.93v-2.7c0-1.01-.22-1.73-.64-2.18-.43-.44-1.08-.66-1.95-.66-.5,0-.93.06-1.31.17-.16.86-.23,1.79-.23,2.78Z"/>
          <path class="cls-22" d="m321.85,169.74v1.04h-4.96c-.89,0-1.59-.12-2.1-.37-.5-.25-.86-.64-1.08-1.18-.22-.54-.33-1.28-.33-2.22s.1-1.65.31-2.2c.22-.57.57-.98,1.06-1.23.5-.26,1.16-.39,1.99-.39.37,0,.93.02,1.68.06.76.03,1.33.06,1.72.1v6.4h1.7Zm-7.33-2.76c0,.68.08,1.22.25,1.62.17.4.43.7.79.87.37.18.88.27,1.54.27h1.91v-5.44c-.87-.05-1.55-.08-2.04-.08-.9,0-1.54.22-1.91.64-.36.43-.54,1.14-.54,2.12Zm1.16-6.29h1.14v1.27h-1.14v-1.27Zm1.87,0h1.12v1.27h-1.12v-1.27Z"/>
          <path class="cls-22" d="m334.5,169.74v1.04h-4.17c-.61,0-1.16-.21-1.66-.62-.36.42-.83.62-1.41.62h-5.4v-1.04h2.41v-5.67h1.16v5.67h1.47c.46,0,.78-.19.98-.58.21-.38.31-.88.31-1.47v-3.61h1.14v3.59c0,.61-.07,1.14-.21,1.58.15.12.34.24.56.35.23.1.47.15.71.15h1.56v-3.22c0-.38-.03-.86-.08-1.43-.06-.57-.12-1.14-.19-1.72l.93-.04c.13.57.25,1.17.33,1.81.09.64.15,1.14.15,1.5v3.12h1.41Z"/>
          <path class="cls-22" d="m345.25,163.32c.13.57.25,1.17.33,1.81.09.64.15,1.14.15,1.5v4.15h-2.76c-.61,0-1.16-.21-1.66-.62-.36.42-.83.62-1.41.62h-5.4v-1.04h2.41v-5.67h1.16v5.67h1.47c.46,0,.78-.19.98-.58.21-.38.31-.88.31-1.47v-3.61h1.14v3.59c0,.61-.07,1.14-.21,1.58.15.12.34.24.56.35.23.1.47.15.71.15h1.56v-3.22c0-.38-.03-.86-.08-1.43-.06-.57-.12-1.14-.19-1.72l.93-.04Z"/>
          <path class="cls-22" d="m355.22,170.78h-1.87c-.06,1.25-.29,2.17-.69,2.78-.4.61-1.04.91-1.91.91-.46,0-1.2-.08-2.24-.23v-1.02c.92.15,1.65.23,2.18.23.34,0,.62-.06.83-.19.22-.12.39-.38.52-.77.13-.39.21-.97.21-1.72h-2.2c-1.08,0-1.8-.34-2.16-1.02-.35-.69-.52-1.58-.52-2.68,0-.92.09-1.68.27-2.26.18-.58.5-1.02.96-1.33.47-.3,1.12-.46,1.95-.46.4,0,.88.04,1.43.1.57.06,1.04.12,1.41.19v6.42h1.83v1.04Zm-6.71-3.74c0,.8.12,1.45.37,1.95.26.5.79.75,1.6.75h1.77v-5.57c-.54-.07-1.01-.1-1.41-.1-.61,0-1.09.11-1.43.33-.33.22-.57.56-.71,1-.12.43-.19.98-.19,1.64Zm3.82-5.77l-3.05.6-.12-.48.71-.19c-.33-.28-.5-.63-.5-1.06,0-.37.12-.69.37-.96.26-.26.59-.39,1-.39.23,0,.45.04.64.12.21.08.36.16.46.23l-.15.58c-.07-.05-.17-.1-.29-.15-.12-.05-.26-.08-.39-.08-.26,0-.48.08-.64.25s-.25.37-.25.6c0,.29.11.52.35.69l1.7-.46.17.69Z"/>
          <path class="cls-22" d="m360.35,163.18c1.21,0,2.11.3,2.68.89.58.6.87,1.59.87,2.97v3.74h-8.68v-1.04h2.45c-.14-.84-.21-1.71-.21-2.6,0-.66.04-1.32.12-1.97.08-.65.17-1.18.27-1.6.23-.09.58-.19,1.04-.27.46-.08.94-.12,1.45-.12Zm-1.72,3.97c0,.49.02.97.06,1.45.04.49.09.87.15,1.14h3.93v-2.7c0-1.01-.22-1.73-.64-2.18-.43-.44-1.08-.66-1.95-.66-.5,0-.93.06-1.31.17-.16.86-.23,1.79-.23,2.78Z"/>
        </g>
        <g>
          <g>
            <path class="cls-22" d="m125.33,185.54v10.32h-1.14v-9.1h-.21l-3.01,8.72h-1.27l-3.01-8.72h-.21v9.1h-1.14v-10.32h2.08l2.93,8.74,2.91-8.74h2.08Z"/>
            <path class="cls-22" d="m133.24,193.21h-4.4l-.75,2.66h-1.14l2.85-10.32h2.49l2.85,10.32h-1.14l-.75-2.66Zm-4.15-1.02h3.9l-1.56-5.65h-.79l-1.56,5.65Z"/>
            <path class="cls-22" d="m135.75,195.91c.51,0,.88-.04,1.1-.1.22-.07.37-.21.46-.42.08-.22.12-.59.12-1.1v-8.74h1.14v8.91c0,.75-.11,1.3-.33,1.66-.21.36-.5.59-.87.69-.37.09-.91.15-1.62.15v-1.04Z"/>
            <path class="cls-22" d="m144.73,185.54c1.05,0,1.85.23,2.41.69.57.46.94,1.04,1.12,1.74.19.71.29,1.53.29,2.47,0,1.9-.31,3.28-.93,4.13-.62.86-1.59,1.29-2.89,1.29h-3.68v-10.32h3.68Zm0,9.3c1.75,0,2.64-1.43,2.64-4.3,0-1.38-.22-2.39-.64-3.03-.42-.63-1.08-.96-1.99-.96h-2.53v8.29h2.53Z"/>
            <path class="cls-22" d="m156.81,191.3l-1.72.06v4.51h-1.14v-10.32h1.14v4.8l1.7-.06,2.64-4.74h1.31l-2.95,5.19,3.12,5.13h-1.35l-2.74-4.57Z"/>
            <path class="cls-22" d="m169.96,185.54v10.32h-1.14v-4.67h-5.25v4.67h-1.14v-10.32h1.14v4.63h5.25v-4.63h1.14Z"/>
            <path class="cls-22" d="m177.86,193.21h-4.4l-.75,2.66h-1.14l2.85-10.32h2.49l2.85,10.32h-1.14l-.75-2.66Zm-4.15-1.02h3.9l-1.56-5.65h-.79l-1.56,5.65Z"/>
            <path class="cls-22" d="m187.06,194.83v1.04h-5.69v-10.32h1.14v9.28h4.55Z"/>
            <path class="cls-22" d="m188.51,185.54h1.14v10.32h-1.14v-10.32Z"/>
            <path class="cls-22" d="m195.85,185.54c1.05,0,1.85.23,2.41.69.57.46.94,1.04,1.12,1.74.19.71.29,1.53.29,2.47,0,1.9-.31,3.28-.93,4.13-.62.86-1.59,1.29-2.89,1.29h-3.68v-10.32h3.68Zm0,9.3c1.75,0,2.64-1.43,2.64-4.3,0-1.38-.22-2.39-.64-3.03-.42-.63-1.08-.96-1.99-.96h-2.53v8.29h2.53Z"/>
            <path class="cls-22" d="m210.45,193.21h-4.4l-.75,2.66h-1.14l2.85-10.32h2.49l2.85,10.32h-1.14l-.75-2.66Zm-4.15-1.02h3.9l-1.56-5.65h-.79l-1.56,5.65Z"/>
            <path class="cls-22" d="m213.95,185.54h3.74c1.05,0,1.83.22,2.33.66.5.43.75,1.1.75,2.01,0,.6-.11,1.08-.33,1.45-.21.36-.54.65-1,.87.55.2.96.49,1.23.89.28.39.42.92.42,1.6,0,.99-.27,1.7-.81,2.16-.54.45-1.33.66-2.37.66h-3.95v-10.32Zm3.8,4.59c.62,0,1.08-.15,1.37-.46.3-.3.46-.76.46-1.37s-.16-1.06-.46-1.33c-.31-.28-.8-.42-1.47-.42h-2.55v3.57h2.66Zm.08,4.71c.67,0,1.19-.13,1.54-.42.36-.29.54-.76.54-1.41,0-.69-.2-1.17-.58-1.45-.39-.29-.91-.44-1.56-.44h-2.68v3.72h2.74Z"/>
            <path class="cls-22" d="m226.81,185.54c1.05,0,1.85.23,2.41.69.57.46.94,1.04,1.12,1.74.19.71.29,1.53.29,2.47,0,1.9-.31,3.28-.93,4.13-.62.86-1.59,1.29-2.89,1.29h-3.68v-10.32h3.68Zm0,9.3c1.75,0,2.64-1.43,2.64-4.3,0-1.38-.22-2.39-.64-3.03-.42-.63-1.08-.96-1.99-.96h-2.53v8.29h2.53Z"/>
            <path class="cls-22" d="m236.26,196.01c-1.2,0-2.11-.25-2.7-.77-.6-.52-.89-1.36-.89-2.51v-7.19h1.16v7.23c0,1.48.8,2.22,2.41,2.22.84,0,1.47-.17,1.89-.52.42-.36.62-.92.62-1.7v-7.23h1.14v7.19c0,1.14-.31,1.97-.91,2.49-.6.53-1.51.79-2.72.79Z"/>
            <path class="cls-22" d="m248.04,194.83v1.04h-5.69v-10.32h1.14v9.28h4.55Z"/>
            <path class="cls-22" d="m255.18,194.83v1.04h-5.69v-10.32h1.14v9.28h4.55Z"/>
            <path class="cls-22" d="m262.01,193.21h-4.4l-.75,2.66h-1.14l2.85-10.32h2.49l2.85,10.32h-1.14l-.75-2.66Zm-4.15-1.02h3.9l-1.56-5.65h-.79l-1.56,5.65Z"/>
            <path class="cls-22" d="m273.05,185.54v10.32h-1.14v-4.67h-5.25v4.67h-1.14v-10.32h1.14v4.63h5.25v-4.63h1.14Z"/>
            <path class="cls-22" d="m284.23,193.21h-4.4l-.75,2.66h-1.14l2.85-10.32h2.49l2.85,10.32h-1.14l-.75-2.66Zm-4.15-1.02h3.9l-1.56-5.65h-.79l-1.56,5.65Z"/>
            <path class="cls-22" d="m293.43,194.83v1.04h-5.69v-10.32h1.14v9.28h4.55Z"/>
            <path class="cls-22" d="m294.88,185.54h3.74c1.05,0,1.83.22,2.33.66.5.43.75,1.1.75,2.01,0,.6-.11,1.08-.33,1.45-.21.36-.54.65-1,.87.55.2.96.49,1.23.89.28.39.42.92.42,1.6,0,.99-.27,1.7-.81,2.16-.54.45-1.33.66-2.37.66h-3.95v-10.32Zm3.8,4.59c.62,0,1.08-.15,1.37-.46.3-.3.46-.76.46-1.37s-.16-1.06-.46-1.33c-.31-.28-.8-.42-1.47-.42h-2.55v3.57h2.66Zm.08,4.71c.67,0,1.19-.13,1.54-.42.36-.29.54-.76.54-1.41,0-.69-.2-1.17-.58-1.45-.39-.29-.91-.44-1.56-.44h-2.68v3.72h2.74Z"/>
            <path class="cls-22" d="m309.44,193.21h-4.4l-.75,2.66h-1.14l2.85-10.32h2.49l2.85,10.32h-1.14l-.75-2.66Zm-4.15-1.02h3.9l-1.56-5.65h-.79l-1.56,5.65Z"/>
            <path class="cls-22" d="m312.94,185.54h3.82c1.11,0,1.93.26,2.47.77.55.51.83,1.3.83,2.37,0,1.61-.64,2.61-1.91,2.99l1.99,4.2h-1.27l-1.87-3.95h-2.93v3.95h-1.14v-10.32Zm3.84,5.36c1.4,0,2.1-.73,2.1-2.18s-.71-2.16-2.12-2.16h-2.68v4.34h2.7Z"/>
            <path class="cls-22" d="m327.03,195.89c-.32.08-.74.12-1.25.12-1.03,0-1.84-.18-2.43-.54-.58-.37-1.01-.94-1.27-1.7-.25-.76-.37-1.77-.37-3.01s.12-2.25.37-3.03c.26-.79.69-1.37,1.29-1.74.59-.38,1.4-.58,2.41-.58s1.79.2,2.39.58c.61.37,1.04.96,1.31,1.74.26.78.39,1.79.39,3.03s-.13,2.29-.39,3.05c-.26.75-.71,1.3-1.33,1.66l1.27,2.06-1.08.5-1.31-2.14Zm-1.23-.89c.75,0,1.33-.13,1.74-.42.42-.28.71-.71.87-1.31.17-.61.25-1.44.25-2.49s-.09-1.89-.27-2.51c-.17-.62-.46-1.09-.87-1.39-.42-.3-1-.46-1.74-.46s-1.33.16-1.74.46c-.42.29-.72.75-.89,1.37-.17.62-.25,1.46-.25,2.51s.08,1.86.25,2.47c.17.61.46,1.06.87,1.35.43.28,1.02.42,1.79.42Z"/>
            <path class="cls-22" d="m337.34,193.21h-4.4l-.75,2.66h-1.14l2.85-10.32h2.49l2.85,10.32h-1.14l-.75-2.66Zm-4.15-1.02h3.9l-1.56-5.65h-.79l-1.56,5.65Z"/>
            <path class="cls-22" d="m340.04,185.54h1.18l1.77,9.3h.44l2.1-9.22h1.33l2.12,9.22h.42l1.77-9.3h1.18l-2.1,10.32h-2.1l-1.95-8.81-1.95,8.81h-2.1l-2.1-10.32Z"/>
            <path class="cls-22" d="m354.05,185.54h1.14v10.32h-1.14v-10.32Z"/>
          </g>
          <g>
            <path class="cls-22" d="m137.81,210.3h1.14v10.32h-1.14v-10.32Z"/>
            <path class="cls-22" d="m149.01,210.3v10.32h-2.1l-4.01-9.3h-.29v9.3h-1.14v-10.32h2.14l3.97,9.3h.31v-9.3h1.12Z"/>
            <path class="cls-22" d="m154.35,220.75c-.7,0-1.6-.08-2.72-.25l-.54-.06.12-.96c1.36.18,2.38.27,3.07.27,1.46,0,2.2-.69,2.2-2.08,0-.37-.07-.67-.21-.89-.12-.22-.35-.4-.69-.54-.32-.13-.78-.27-1.39-.39-.82-.17-1.45-.36-1.91-.58-.45-.22-.78-.51-1-.87-.21-.37-.31-.86-.31-1.47,0-1.85,1.11-2.78,3.34-2.78.76,0,1.8.1,3.12.31l-.1.96c-1.44-.17-2.42-.25-2.95-.25-1.5,0-2.24.56-2.24,1.68,0,.43.07.76.21.98.15.22.4.4.75.54.36.14.91.3,1.66.48.73.17,1.3.35,1.7.56.4.21.7.49.89.83.19.35.29.8.29,1.37,0,2.11-1.1,3.16-3.3,3.16Z"/>
            <path class="cls-22" d="m161.73,211.34h-3.18v-1.04h7.46v1.04h-3.14v9.28h-1.14v-9.28Z"/>
            <path class="cls-22" d="m167.47,210.3h1.14v10.32h-1.14v-10.32Z"/>
            <path class="cls-22" d="m173.23,211.34h-3.18v-1.04h7.46v1.04h-3.14v9.28h-1.14v-9.28Z"/>
            <path class="cls-22" d="m182.49,220.77c-1.2,0-2.11-.25-2.7-.77-.6-.52-.89-1.36-.89-2.51v-7.19h1.16v7.23c0,1.48.8,2.22,2.41,2.22.84,0,1.47-.17,1.89-.52.42-.36.62-.92.62-1.7v-7.23h1.14v7.19c0,1.14-.31,1.97-.91,2.49-.6.53-1.51.79-2.72.79Z"/>
            <path class="cls-22" d="m190.67,211.34h-3.18v-1.04h7.46v1.04h-3.14v9.28h-1.14v-9.28Z"/>
            <path class="cls-22" d="m197.56,211.32v3.57h4.24v1h-4.24v3.72h5.13v1.02h-6.27v-10.32h6.27v1.02h-5.13Z"/>
            <path class="cls-22" d="m209.08,211.32v4.03h4.26v1.02h-4.26v4.26h-1.14v-10.32h6.17v1.02h-5.03Z"/>
            <path class="cls-22" d="m219.45,220.77c-1.03,0-1.84-.18-2.43-.54-.6-.37-1.03-.94-1.29-1.7-.25-.76-.37-1.77-.37-3.01s.12-2.25.37-3.03c.26-.79.69-1.37,1.29-1.74.59-.38,1.4-.58,2.41-.58s1.79.2,2.39.58c.61.37,1.04.96,1.31,1.74.26.78.39,1.8.39,3.05s-.13,2.27-.39,3.03c-.25.75-.67,1.3-1.27,1.66-.58.36-1.39.54-2.41.54Zm0-1.02c.75,0,1.33-.13,1.74-.42.42-.28.71-.71.87-1.31.17-.61.25-1.44.25-2.49s-.09-1.89-.27-2.51c-.17-.62-.46-1.09-.87-1.39-.42-.3-1-.46-1.74-.46s-1.33.16-1.74.46c-.42.29-.72.75-.89,1.37-.17.62-.25,1.46-.25,2.51s.08,1.86.25,2.47c.17.61.46,1.06.87,1.35.43.28,1.02.42,1.79.42Z"/>
            <path class="cls-22" d="m225.62,210.3h3.82c1.11,0,1.93.26,2.47.77.55.51.83,1.3.83,2.37,0,1.61-.64,2.61-1.91,2.99l1.99,4.2h-1.27l-1.87-3.95h-2.93v3.95h-1.14v-10.32Zm3.84,5.36c1.4,0,2.1-.73,2.1-2.18s-.71-2.16-2.12-2.16h-2.68v4.34h2.7Z"/>
            <path class="cls-22" d="m248.07,210.3v10.32h-1.14v-9.1h-.21l-3.01,8.72h-1.27l-3.01-8.72h-.21v9.1h-1.14v-10.32h2.08l2.93,8.74,2.91-8.74h2.08Z"/>
            <path class="cls-22" d="m255.98,217.97h-4.4l-.75,2.66h-1.14l2.85-10.32h2.49l2.85,10.32h-1.14l-.75-2.66Zm-4.15-1.02h3.9l-1.56-5.65h-.79l-1.56,5.65Z"/>
            <path class="cls-22" d="m259.48,210.3h1.14v10.32h-1.14v-10.32Z"/>
            <path class="cls-22" d="m270.69,210.3v10.32h-2.1l-4.01-9.3h-.29v9.3h-1.14v-10.32h2.14l3.97,9.3h.31v-9.3h1.12Z"/>
            <path class="cls-22" d="m275.32,211.34h-3.18v-1.04h7.46v1.04h-3.14v9.28h-1.14v-9.28Z"/>
            <path class="cls-22" d="m282.21,211.32v3.57h4.24v1h-4.24v3.72h5.13v1.02h-6.27v-10.32h6.27v1.02h-5.13Z"/>
            <path class="cls-22" d="m296.85,210.3v10.32h-2.1l-4.01-9.3h-.29v9.3h-1.14v-10.32h2.14l3.97,9.3h.31v-9.3h1.12Z"/>
            <path class="cls-22" d="m304.76,217.97h-4.4l-.75,2.66h-1.14l2.85-10.32h2.49l2.85,10.32h-1.14l-.75-2.66Zm-4.15-1.02h3.9l-1.56-5.65h-.79l-1.56,5.65Z"/>
            <path class="cls-22" d="m315.81,210.3v10.32h-2.1l-4.01-9.3h-.29v9.3h-1.14v-10.32h2.14l3.97,9.3h.31v-9.3h1.12Z"/>
            <path class="cls-22" d="m321.85,220.77c-1.05,0-1.86-.19-2.43-.58-.56-.4-.94-.98-1.16-1.72-.21-.76-.31-1.75-.31-2.99s.1-2.23.31-2.99c.22-.76.6-1.33,1.14-1.72.55-.4,1.35-.6,2.39-.6.8,0,1.73.11,2.78.33l-.04.96c-1.01-.17-1.88-.25-2.6-.25-.78,0-1.37.14-1.77.42-.39.28-.66.73-.81,1.35-.14.61-.21,1.5-.21,2.66,0,1.03.06,1.82.19,2.39.13.57.42,1.01.83,1.31.43.29,1.06.44,1.91.44.67,0,1.5-.09,2.45-.27l.04.98c-1.03.21-1.93.31-2.72.31Z"/>
            <path class="cls-22" d="m327.6,211.32v3.57h4.24v1h-4.24v3.72h5.13v1.02h-6.27v-10.32h6.27v1.02h-5.13Z"/>
          </g>
        </g>
      </g>
    </g>
  </g>
</svg>